<svg width="16" height="11" viewBox="30 14 16 11" fill="none" xmlns="http://www.w3.org/2000/svg">
<path opacity="0.4" d="M42 19.4C42.4747 19.4 42.9387 19.2592 43.3334 18.9955C43.728 18.7318 44.0356 18.357 44.2173 17.9184C44.399 17.4799 44.4465 16.9973 44.3539 16.5318C44.2613 16.0662 44.0327 15.6386 43.697 15.303C43.3614 14.9673 42.9338 14.7387 42.4682 14.6461C42.0026 14.5535 41.5201 14.601 41.0815 14.7827C40.643 14.9643 40.2682 15.272 40.0044 15.6666C39.7407 16.0613 39.6 16.5253 39.6 17C39.6 17.6365 39.8528 18.247 40.3029 18.6971C40.753 19.1472 41.3635 19.4 42 19.4ZM43.2 20.2H43.105C42.7575 20.32 42.39 20.4 42 20.4C41.61 20.4 41.2425 20.32 40.895 20.2H40.8C40.29 20.2 39.82 20.3475 39.4075 20.585C40.0175 21.2425 40.4 22.115 40.4 23.08V24.04C40.4 24.095 40.3875 24.1475 40.385 24.2H44.8C45.1183 24.2 45.4235 24.0736 45.6485 23.8485C45.8736 23.6235 46 23.3183 46 23C46.0002 22.6322 45.9279 22.2681 45.7873 21.9283C45.6466 21.5885 45.4404 21.2797 45.1803 21.0197C44.9203 20.7596 44.6115 20.5534 44.2717 20.4127C43.9319 20.2721 43.5677 20.1998 43.2 20.2Z" fill="#213F7D"/>
<path d="M34.8 19.4C35.3538 19.4 35.8951 19.2358 36.3556 18.9281C36.8161 18.6205 37.1749 18.1832 37.3869 17.6715C37.5988 17.1599 37.6542 16.5969 37.5462 16.0538C37.4382 15.5106 37.1715 15.0117 36.7799 14.6201C36.3883 14.2285 35.8894 13.9619 35.3463 13.8538C34.8031 13.7458 34.2401 13.8012 33.7285 14.0132C33.2169 14.2251 32.7796 14.584 32.4719 15.0444C32.1642 15.5049 32 16.0462 32 16.6C31.9998 16.9678 32.0721 17.332 32.2127 17.6718C32.3534 18.0116 32.5596 18.3203 32.8197 18.5804C33.0797 18.8404 33.3885 19.0466 33.7283 19.1873C34.0681 19.3279 34.4322 19.4002 34.8 19.4ZM36.72 20.2H36.5125C35.9791 20.4607 35.3937 20.5975 34.8 20.6C34.185 20.6 33.61 20.45 33.0875 20.2H32.88C32.1162 20.2002 31.3838 20.5037 30.8438 21.0438C30.3037 21.5838 30.0002 22.3163 30 23.08V23.8C30 24.1183 30.1264 24.4235 30.3515 24.6485C30.5765 24.8736 30.8817 25 31.2 25H38.4C38.7183 25 39.0235 24.8736 39.2485 24.6485C39.4736 24.4235 39.6 24.1183 39.6 23.8V23.08C39.5998 22.3163 39.2963 21.5838 38.7562 21.0438C38.2162 20.5037 37.4838 20.2002 36.72 20.2Z" fill="#213F7D"/>
</svg>
